<?xml version="1.0" encoding="UTF-8"?>
<svg width="53px" height="53px" viewBox="0 0 53 53" version="1.1" xmlns="http://www.w3.org/2000/svg" xmlns:xlink="http://www.w3.org/1999/xlink">
    <!-- Generator: Sketch 49.2 (51160) - http://www.bohemiancoding.com/sketch -->
    <title>white-up-arrow</title>
    <desc>Created with Sketch.</desc>
    <defs></defs>
    <g id="Page-1" stroke="none" stroke-width="1" fill="none" fill-rule="evenodd">
        <g id="Desktop-HD" transform="translate(-694.000000, -263.000000)" fill="#FFFFFF" fill-rule="nonzero">
            <g id="white-up-arrow" transform="translate(720.500000, 289.500000) rotate(-90.000000) translate(-720.500000, -289.500000) translate(694.000000, 263.000000)">
                <path d="M26.5,53 C41.095525,53 53,41.141136 53,26.5 C53,11.858864 41.095525,0 26.5,0 C11.904475,0 0,11.904475 0,26.5 C0,41.095525 11.904475,53 26.5,53 Z M26.5,3.74010327 C39.0430293,3.74010327 49.2598967,13.9569707 49.2598967,26.5 C49.2598967,39.0430293 39.0430293,49.2598967 26.5,49.2598967 C13.9569707,49.2598967 3.74010327,39.0430293 3.74010327,26.5 C3.74010327,13.9569707 13.9569707,3.74010327 26.5,3.74010327 Z" id="Shape"></path>
                <path d="M20.5549133,40.4491803 C20.9248555,40.8163934 21.3872832,41 21.8959538,41 C22.3583815,41 22.867052,40.8163934 23.2369942,40.4491803 L35.4450867,28.3311475 C35.8150289,27.9639344 36,27.504918 36,27 C36,26.495082 35.8150289,26.0360656 35.4450867,25.6688525 L23.2369942,13.5508197 C22.4971098,12.8163934 21.2947977,12.8163934 20.5549133,13.5508197 C19.8150289,14.2852459 19.8150289,15.4786885 20.5549133,16.2131148 L31.4219653,27 L20.5549133,37.7868852 C19.8150289,38.5213115 19.8150289,39.7147541 20.5549133,40.4491803 Z" id="Shape"></path>
            </g>
        </g>
    </g>
</svg>